# xmcd
#
# Track frame offsets: 
#        187
#        14285
#        27277
#        51130
#        68615
#        86097
#        107010
#        122772
#        137350
#        163135
#
# Disc length: 2405 seconds
#
# Revision: 8
# Processed by: cddbd v1.5.2PL0 Copyright (c) Steve Scherf et al.
# Submitted via: ExactAudioCopy v0.99pb5
#
DISCID=7b09630a
DTITLE=Dinosaur Jr. - You're Living All Over Me
DYEAR=1987
DGENRE=Rock
TTITLE0=Little Fury Things
TTITLE1=Kracked
TTITLE2=Sludgefeast
TTITLE3=The Lung
TTITLE4=Raisans
TTITLE5=Tarpit
TTITLE6=In A Jar
TTITLE7=Lose
TTITLE8=Poledo
TTITLE9=Show Me The Way
EXTD=YEAR: 1987
EXTT0=
EXTT1=
EXTT2=
EXTT3=
EXTT4=
EXTT5=
EXTT6=
EXTT7=
EXTT8=
EXTT9=
PLAYORDER=
